<svg width="59" height="5760" viewBox="0 0 59 5760" fill="none" xmlns="http://www.w3.org/2000/svg">
<path d="M0.166667 29.5C0.166667 45.7004 13.2996 58.8333 29.5 58.8333C45.7004 58.8333 58.8333 45.7004 58.8333 29.5C58.8333 13.2996 45.7004 0.166667 29.5 0.166667C13.2996 0.166667 0.166667 13.2996 0.166667 29.5ZM0.166667 5730C0.166667 5746.2 13.2996 5759.33 29.5 5759.33C45.7004 5759.33 58.8333 5746.2 58.8333 5730C58.8333 5713.8 45.7004 5700.67 29.5 5700.67C13.2996 5700.67 0.166667 5713.8 0.166667 5730ZM24 29.5V5730H35V29.5H24Z" fill="black"/>
</svg>
